<svg width="83" height="67" viewBox="0 0 83 67" fill="none" xmlns="http://www.w3.org/2000/svg">
<path d="M19.48 29.6C21.1067 29.9467 22.4133 30.76 23.4 32.04C24.3867 33.2933 24.88 34.7333 24.88 36.36C24.88 38.7067 24.0533 40.5733 22.4 41.96C20.7733 43.32 18.4933 44 15.56 44H2.48V15.92H15.12C17.9733 15.92 20.2 16.5733 21.8 17.88C23.4267 19.1867 24.24 20.96 24.24 23.2C24.24 24.8533 23.8 26.2267 22.92 27.32C22.0667 28.4133 20.92 29.1733 19.48 29.6ZM9.32 27.28H13.8C14.92 27.28 15.7733 27.04 16.36 26.56C16.9733 26.0533 17.28 25.32 17.28 24.36C17.28 23.4 16.9733 22.6667 16.36 22.16C15.7733 21.6533 14.92 21.4 13.8 21.4H9.32V27.28ZM14.36 38.48C15.5067 38.48 16.3867 38.2267 17 37.72C17.64 37.1867 17.96 36.4267 17.96 35.44C17.96 34.4533 17.6267 33.68 16.96 33.12C16.32 32.56 15.4267 32.28 14.28 32.28H9.32V38.48H14.36ZM27.6872 29.92C27.6872 27.1467 28.2872 24.68 29.4872 22.52C30.6872 20.3333 32.3539 18.64 34.4872 17.44C36.6472 16.2133 39.0872 15.6 41.8072 15.6C45.1405 15.6 47.9939 16.48 50.3672 18.24C52.7405 20 54.3272 22.4 55.1272 25.44H47.6072C47.0472 24.2667 46.2472 23.3733 45.2072 22.76C44.1939 22.1467 43.0339 21.84 41.7272 21.84C39.6205 21.84 37.9139 22.5733 36.6072 24.04C35.3005 25.5067 34.6472 27.4667 34.6472 29.92C34.6472 32.3733 35.3005 34.3333 36.6072 35.8C37.9139 37.2667 39.6205 38 41.7272 38C43.0339 38 44.1939 37.6933 45.2072 37.08C46.2472 36.4667 47.0472 35.5733 47.6072 34.4H55.1272C54.3272 37.44 52.7405 39.84 50.3672 41.6C47.9939 43.3333 45.1405 44.2 41.8072 44.2C39.0872 44.2 36.6472 43.6 34.4872 42.4C32.3539 41.1733 30.6872 39.48 29.4872 37.32C28.2872 35.16 27.6872 32.6933 27.6872 29.92ZM78.9559 22.16V44H76.1559V40.16C75.5159 41.52 74.5293 42.56 73.1959 43.28C71.8626 44 70.3693 44.36 68.7159 44.36C66.1026 44.36 63.9693 43.56 62.3159 41.96C60.6626 40.3333 59.8359 37.9867 59.8359 34.92V22.16H62.5959V34.6C62.5959 36.9733 63.1826 38.7867 64.3559 40.04C65.5559 41.2933 67.1826 41.92 69.2359 41.92C71.3426 41.92 73.0226 41.2533 74.2759 39.92C75.5293 38.5867 76.1559 36.6267 76.1559 34.04V22.16H78.9559Z" fill="black"/>
</svg>
